<svg width="34" height="49" viewBox="0 0 34 49" fill="none" xmlns="http://www.w3.org/2000/svg">
<path d="M0.0834961 16.9142C0.0862761 19.5759 0.717958 22.1992 1.92705 24.5703C3.13615 26.9415 4.88843 28.9934 7.04108 30.5587L7.0435 30.5612C8.42925 31.577 9.96222 32.3748 11.5892 32.9271L11.7125 32.973C12.6287 33.272 13.5691 33.4912 14.5231 33.6279C15.3416 33.7588 16.1688 33.8275 16.9977 33.8333H17.0002C17.846 33.8333 18.6677 33.7512 19.4821 33.6303L19.9219 33.5627C20.7339 33.4201 21.5266 33.2267 22.2927 32.9754L22.3942 32.9367C29.0835 30.6747 33.9168 24.3552 33.9168 16.9142C33.9168 7.58833 26.3285 0 17.0002 0C7.67183 0 0.0834961 7.58833 0.0834961 16.9142ZM17.0002 4.83333C23.6605 4.83333 29.0835 10.2515 29.0835 16.9142H24.2502C24.2476 14.9924 23.4829 13.1501 22.1237 11.7914C20.7646 10.4327 18.922 9.66858 17.0002 9.66667V4.83333ZM6.17591 35.7546V48.3333L17.0002 44.7083L27.8244 48.3333L27.8268 35.7546C24.5376 37.6613 20.8032 38.6654 17.0014 38.6654C13.1995 38.6654 9.46509 37.6613 6.17591 35.7546Z" fill="#4361EE"/>
</svg>
