<svg width="350" height="78" viewBox="0 0 350 78" fill="none" xmlns="http://www.w3.org/2000/svg">
<mask id="path-1-outside-1_1_50534" maskUnits="userSpaceOnUse" x="-1" y="13" width="349" height="49" fill="black">
<rect fill="white" x="-1" y="13" width="349" height="49"/>
<path d="M10.314 39.1C10.314 41.584 10.872 43.762 11.988 45.634C13.14 47.47 14.634 48.892 16.47 49.9C18.306 50.872 20.304 51.358 22.464 51.358C24.264 51.358 25.866 51.124 27.27 50.656C28.674 50.188 29.934 49.558 31.05 48.766C32.202 47.974 33.192 47.11 34.02 46.174V54.868C32.472 56.092 30.78 57.046 28.944 57.73C27.144 58.414 24.858 58.756 22.086 58.756C19.206 58.756 16.524 58.288 14.04 57.352C11.592 56.416 9.45 55.066 7.614 53.302C5.814 51.538 4.41 49.468 3.402 47.092C2.43 44.68 1.944 42.016 1.944 39.1C1.944 36.184 2.43 33.538 3.402 31.162C4.41 28.75 5.814 26.662 7.614 24.898C9.45 23.134 11.592 21.784 14.04 20.848C16.524 19.912 19.206 19.444 22.086 19.444C24.858 19.444 27.144 19.786 28.944 20.47C30.78 21.154 32.472 22.108 34.02 23.332V32.026C33.192 31.09 32.202 30.226 31.05 29.434C29.934 28.642 28.674 28.012 27.27 27.544C25.866 27.076 24.264 26.842 22.464 26.842C20.304 26.842 18.306 27.346 16.47 28.354C14.634 29.326 13.14 30.73 11.988 32.566C10.872 34.402 10.314 36.58 10.314 39.1ZM41.7036 20.2H49.4256V51.25H64.4916V58H41.7036V20.2ZM73.2738 39.1C73.2738 41.512 73.7778 43.654 74.7858 45.526C75.7938 47.398 77.1798 48.874 78.9438 49.954C80.7078 51.034 82.7598 51.574 85.0998 51.574C87.4398 51.574 89.4918 51.034 91.2558 49.954C93.0198 48.874 94.3878 47.398 95.3598 45.526C96.3678 43.654 96.8718 41.512 96.8718 39.1C96.8718 36.688 96.3858 34.546 95.4138 32.674C94.4418 30.802 93.0738 29.326 91.3098 28.246C89.5458 27.166 87.4758 26.626 85.0998 26.626C82.7598 26.626 80.7078 27.166 78.9438 28.246C77.1798 29.326 75.7938 30.802 74.7858 32.674C73.7778 34.546 73.2738 36.688 73.2738 39.1ZM65.1198 39.1C65.1198 36.22 65.6238 33.592 66.6318 31.216C67.6398 28.804 69.0438 26.716 70.8438 24.952C72.6438 23.188 74.7498 21.838 77.1618 20.902C79.6098 19.93 82.2558 19.444 85.0998 19.444C87.9798 19.444 90.6258 19.93 93.0378 20.902C95.4498 21.838 97.5558 23.188 99.3558 24.952C101.192 26.716 102.596 28.804 103.568 31.216C104.576 33.592 105.08 36.22 105.08 39.1C105.08 41.944 104.576 44.59 103.568 47.038C102.596 49.45 101.21 51.556 99.4098 53.356C97.6458 55.156 95.5398 56.56 93.0918 57.568C90.6798 58.54 88.0158 59.026 85.0998 59.026C82.1838 59.026 79.5018 58.54 77.0538 57.568C74.6418 56.56 72.5358 55.156 70.7358 53.356C68.9358 51.556 67.5498 49.45 66.5778 47.038C65.6058 44.59 65.1198 41.944 65.1198 39.1ZM110.779 20.2H118.501V45.094C118.501 47.254 119.059 49 120.175 50.332C121.327 51.628 123.019 52.276 125.251 52.276C127.483 52.276 129.157 51.628 130.273 50.332C131.425 49 132.001 47.254 132.001 45.094V20.2H139.723V45.58C139.723 47.812 139.363 49.774 138.643 51.466C137.923 53.158 136.897 54.58 135.565 55.732C134.269 56.884 132.739 57.748 130.975 58.324C129.211 58.936 127.303 59.242 125.251 59.242C123.163 59.242 121.237 58.936 119.473 58.324C117.709 57.748 116.179 56.884 114.883 55.732C113.587 54.58 112.579 53.158 111.859 51.466C111.139 49.774 110.779 47.812 110.779 45.58V20.2ZM147.594 20.2H155.478V58H147.594V20.2ZM160.446 58H152.562V50.98H160.176C161.832 50.98 163.398 50.764 164.874 50.332C166.35 49.864 167.646 49.144 168.762 48.172C169.878 47.2 170.742 45.976 171.354 44.5C172.002 42.988 172.326 41.188 172.326 39.1C172.326 37.012 172.002 35.23 171.354 33.754C170.742 32.242 169.878 31 168.762 30.028C167.646 29.056 166.35 28.354 164.874 27.922C163.398 27.454 161.832 27.22 160.176 27.22H152.562V20.2H160.446C164.406 20.2 167.862 20.974 170.814 22.522C173.802 24.07 176.124 26.266 177.78 29.11C179.436 31.918 180.264 35.248 180.264 39.1C180.264 42.952 179.436 46.3 177.78 49.144C176.124 51.952 173.802 54.13 170.814 55.678C167.862 57.226 164.406 58 160.446 58Z"/>
<path d="M189.543 45.31C190.335 46.714 191.199 47.938 192.135 48.982C193.107 50.026 194.169 50.836 195.321 51.412C196.473 51.988 197.715 52.276 199.047 52.276C200.595 52.276 201.855 51.88 202.827 51.088C203.799 50.296 204.285 49.216 204.285 47.848C204.285 46.66 203.979 45.706 203.367 44.986C202.791 44.266 201.909 43.636 200.721 43.096C199.569 42.52 198.147 41.908 196.455 41.26C195.555 40.936 194.511 40.504 193.323 39.964C192.171 39.388 191.073 38.668 190.029 37.804C188.985 36.904 188.121 35.824 187.437 34.564C186.753 33.268 186.411 31.72 186.411 29.92C186.411 27.76 186.951 25.906 188.031 24.358C189.147 22.774 190.641 21.568 192.513 20.74C194.421 19.876 196.545 19.444 198.885 19.444C201.297 19.444 203.367 19.858 205.095 20.686C206.859 21.478 208.317 22.504 209.469 23.764C210.657 24.988 211.575 26.266 212.223 27.598L206.175 30.946C205.671 30.046 205.059 29.236 204.339 28.516C203.655 27.76 202.863 27.166 201.963 26.734C201.063 26.266 200.037 26.032 198.885 26.032C197.373 26.032 196.239 26.392 195.483 27.112C194.727 27.796 194.349 28.606 194.349 29.542C194.349 30.478 194.655 31.306 195.267 32.026C195.879 32.71 196.815 33.376 198.075 34.024C199.335 34.636 200.919 35.266 202.827 35.914C204.051 36.346 205.221 36.886 206.337 37.534C207.489 38.182 208.515 38.974 209.415 39.91C210.351 40.81 211.071 41.89 211.575 43.15C212.115 44.374 212.385 45.796 212.385 47.416C212.385 49.252 212.025 50.89 211.305 52.33C210.585 53.77 209.595 54.994 208.335 56.002C207.075 56.974 205.653 57.712 204.069 58.216C202.521 58.756 200.883 59.026 199.155 59.026C196.851 59.026 194.691 58.594 192.675 57.73C190.695 56.83 188.967 55.624 187.491 54.112C186.015 52.6 184.863 50.962 184.035 49.198L189.543 45.31ZM218.68 20.2H226.402V58H218.68V20.2ZM223.378 26.734V20.2H230.884C233.872 20.2 236.41 20.686 238.498 21.658C240.622 22.63 242.242 24.016 243.358 25.816C244.474 27.616 245.032 29.758 245.032 32.242C245.032 34.69 244.474 36.832 243.358 38.668C242.242 40.468 240.622 41.854 238.498 42.826C236.41 43.798 233.872 44.284 230.884 44.284H223.378V37.75H230.884C232.936 37.75 234.556 37.282 235.744 36.346C236.932 35.41 237.526 34.042 237.526 32.242C237.526 30.406 236.932 29.038 235.744 28.138C234.556 27.202 232.936 26.734 230.884 26.734H223.378ZM252.447 49.414L253.365 43.312H271.509L272.427 49.414H252.447ZM262.329 32.458L256.659 45.472L256.821 47.2L251.853 58H243.159L262.329 17.986L281.499 58H272.751L267.891 47.524L267.999 45.58L262.329 32.458ZM290.175 39.1C290.175 41.584 290.733 43.762 291.849 45.634C293.001 47.47 294.495 48.892 296.331 49.9C298.167 50.872 300.165 51.358 302.325 51.358C304.125 51.358 305.727 51.124 307.131 50.656C308.535 50.188 309.795 49.558 310.911 48.766C312.063 47.974 313.053 47.11 313.881 46.174V54.868C312.333 56.092 310.641 57.046 308.805 57.73C307.005 58.414 304.719 58.756 301.947 58.756C299.067 58.756 296.385 58.288 293.901 57.352C291.453 56.416 289.311 55.066 287.475 53.302C285.675 51.538 284.271 49.468 283.263 47.092C282.291 44.68 281.805 42.016 281.805 39.1C281.805 36.184 282.291 33.538 283.263 31.162C284.271 28.75 285.675 26.662 287.475 24.898C289.311 23.134 291.453 21.784 293.901 20.848C296.385 19.912 299.067 19.444 301.947 19.444C304.719 19.444 307.005 19.786 308.805 20.47C310.641 21.154 312.333 22.108 313.881 23.332V32.026C313.053 31.09 312.063 30.226 310.911 29.434C309.795 28.642 308.535 28.012 307.131 27.544C305.727 27.076 304.125 26.842 302.325 26.842C300.165 26.842 298.167 27.346 296.331 28.354C294.495 29.326 293.001 30.73 291.849 32.566C290.733 34.402 290.175 36.58 290.175 39.1ZM326.533 58V51.466H345.595V58H326.533ZM326.533 26.734V20.2H345.595V26.734H326.533ZM326.533 41.152V34.726H344.515V41.152H326.533ZM321.565 20.2H329.017V58H321.565V20.2Z"/>
</mask>
<path d="M10.314 39.1C10.314 41.584 10.872 43.762 11.988 45.634C13.14 47.47 14.634 48.892 16.47 49.9C18.306 50.872 20.304 51.358 22.464 51.358C24.264 51.358 25.866 51.124 27.27 50.656C28.674 50.188 29.934 49.558 31.05 48.766C32.202 47.974 33.192 47.11 34.02 46.174V54.868C32.472 56.092 30.78 57.046 28.944 57.73C27.144 58.414 24.858 58.756 22.086 58.756C19.206 58.756 16.524 58.288 14.04 57.352C11.592 56.416 9.45 55.066 7.614 53.302C5.814 51.538 4.41 49.468 3.402 47.092C2.43 44.68 1.944 42.016 1.944 39.1C1.944 36.184 2.43 33.538 3.402 31.162C4.41 28.75 5.814 26.662 7.614 24.898C9.45 23.134 11.592 21.784 14.04 20.848C16.524 19.912 19.206 19.444 22.086 19.444C24.858 19.444 27.144 19.786 28.944 20.47C30.78 21.154 32.472 22.108 34.02 23.332V32.026C33.192 31.09 32.202 30.226 31.05 29.434C29.934 28.642 28.674 28.012 27.27 27.544C25.866 27.076 24.264 26.842 22.464 26.842C20.304 26.842 18.306 27.346 16.47 28.354C14.634 29.326 13.14 30.73 11.988 32.566C10.872 34.402 10.314 36.58 10.314 39.1ZM41.7036 20.2H49.4256V51.25H64.4916V58H41.7036V20.2ZM73.2738 39.1C73.2738 41.512 73.7778 43.654 74.7858 45.526C75.7938 47.398 77.1798 48.874 78.9438 49.954C80.7078 51.034 82.7598 51.574 85.0998 51.574C87.4398 51.574 89.4918 51.034 91.2558 49.954C93.0198 48.874 94.3878 47.398 95.3598 45.526C96.3678 43.654 96.8718 41.512 96.8718 39.1C96.8718 36.688 96.3858 34.546 95.4138 32.674C94.4418 30.802 93.0738 29.326 91.3098 28.246C89.5458 27.166 87.4758 26.626 85.0998 26.626C82.7598 26.626 80.7078 27.166 78.9438 28.246C77.1798 29.326 75.7938 30.802 74.7858 32.674C73.7778 34.546 73.2738 36.688 73.2738 39.1ZM65.1198 39.1C65.1198 36.22 65.6238 33.592 66.6318 31.216C67.6398 28.804 69.0438 26.716 70.8438 24.952C72.6438 23.188 74.7498 21.838 77.1618 20.902C79.6098 19.93 82.2558 19.444 85.0998 19.444C87.9798 19.444 90.6258 19.93 93.0378 20.902C95.4498 21.838 97.5558 23.188 99.3558 24.952C101.192 26.716 102.596 28.804 103.568 31.216C104.576 33.592 105.08 36.22 105.08 39.1C105.08 41.944 104.576 44.59 103.568 47.038C102.596 49.45 101.21 51.556 99.4098 53.356C97.6458 55.156 95.5398 56.56 93.0918 57.568C90.6798 58.54 88.0158 59.026 85.0998 59.026C82.1838 59.026 79.5018 58.54 77.0538 57.568C74.6418 56.56 72.5358 55.156 70.7358 53.356C68.9358 51.556 67.5498 49.45 66.5778 47.038C65.6058 44.59 65.1198 41.944 65.1198 39.1ZM110.779 20.2H118.501V45.094C118.501 47.254 119.059 49 120.175 50.332C121.327 51.628 123.019 52.276 125.251 52.276C127.483 52.276 129.157 51.628 130.273 50.332C131.425 49 132.001 47.254 132.001 45.094V20.2H139.723V45.58C139.723 47.812 139.363 49.774 138.643 51.466C137.923 53.158 136.897 54.58 135.565 55.732C134.269 56.884 132.739 57.748 130.975 58.324C129.211 58.936 127.303 59.242 125.251 59.242C123.163 59.242 121.237 58.936 119.473 58.324C117.709 57.748 116.179 56.884 114.883 55.732C113.587 54.58 112.579 53.158 111.859 51.466C111.139 49.774 110.779 47.812 110.779 45.58V20.2ZM147.594 20.2H155.478V58H147.594V20.2ZM160.446 58H152.562V50.98H160.176C161.832 50.98 163.398 50.764 164.874 50.332C166.35 49.864 167.646 49.144 168.762 48.172C169.878 47.2 170.742 45.976 171.354 44.5C172.002 42.988 172.326 41.188 172.326 39.1C172.326 37.012 172.002 35.23 171.354 33.754C170.742 32.242 169.878 31 168.762 30.028C167.646 29.056 166.35 28.354 164.874 27.922C163.398 27.454 161.832 27.22 160.176 27.22H152.562V20.2H160.446C164.406 20.2 167.862 20.974 170.814 22.522C173.802 24.07 176.124 26.266 177.78 29.11C179.436 31.918 180.264 35.248 180.264 39.1C180.264 42.952 179.436 46.3 177.78 49.144C176.124 51.952 173.802 54.13 170.814 55.678C167.862 57.226 164.406 58 160.446 58Z" fill="white"/>
<path d="M11.988 45.634L10.2701 46.6581L10.2818 46.6777L10.2939 46.697L11.988 45.634ZM16.47 49.9L15.5075 51.6532L15.5208 51.6605L15.5342 51.6676L16.47 49.9ZM27.27 50.656L26.6375 48.7586H26.6375L27.27 50.656ZM31.05 48.766L29.9169 47.1179L29.9047 47.1264L29.8925 47.135L31.05 48.766ZM34.02 46.174H36.02V40.8946L32.522 44.8489L34.02 46.174ZM34.02 54.868L35.2605 56.4368L36.02 55.8363V54.868H34.02ZM28.944 57.73L28.2458 55.8558L28.2336 55.8604L28.944 57.73ZM14.04 57.352L13.3257 59.2201L13.3348 59.2235L14.04 57.352ZM7.614 53.302L6.21414 54.7304L6.22121 54.7374L6.22835 54.7442L7.614 53.302ZM3.402 47.092L1.54696 47.8396L1.55375 47.8564L1.56084 47.8731L3.402 47.092ZM3.402 31.162L1.55666 30.3908L1.55376 30.3978L1.55091 30.4047L3.402 31.162ZM7.614 24.898L6.22835 23.4558L6.22121 23.4626L6.21414 23.4696L7.614 24.898ZM14.04 20.848L13.3348 18.9764L13.3257 18.9799L14.04 20.848ZM28.944 20.47L28.2335 22.3396L28.2458 22.3442L28.944 20.47ZM34.02 23.332H36.02V22.3637L35.2605 21.7632L34.02 23.332ZM34.02 32.026L32.522 33.3511L36.02 37.3054V32.026H34.02ZM31.05 29.434L29.8925 31.065L29.9047 31.0736L29.9169 31.0821L31.05 29.434ZM27.27 27.544L26.6375 29.4414H26.6375L27.27 27.544ZM16.47 28.354L17.4058 30.1216L17.4192 30.1145L17.4325 30.1072L16.47 28.354ZM11.988 32.566L10.2939 31.503L10.2863 31.515L10.279 31.5272L11.988 32.566ZM8.314 39.1C8.314 41.8932 8.94483 44.4351 10.2701 46.6581L13.7059 44.6099C12.7992 43.0889 12.314 41.2748 12.314 39.1H8.314ZM10.2939 46.697C11.6204 48.8111 13.3622 50.4753 15.5075 51.6532L17.4325 48.1468C15.9059 47.3087 14.6596 46.1289 13.6821 44.571L10.2939 46.697ZM15.5342 51.6676C17.6702 52.7984 19.9912 53.358 22.464 53.358V49.358C20.6168 49.358 18.9418 48.9456 17.4058 48.1324L15.5342 51.6676ZM22.464 53.358C24.4341 53.358 26.2559 53.1022 27.9025 52.5534L26.6375 48.7586C25.4761 49.1458 24.0939 49.358 22.464 49.358V53.358ZM27.9025 52.5534C29.4785 52.028 30.918 51.3121 32.2075 50.397L29.8925 47.135C28.95 47.8039 27.8695 48.348 26.6375 48.7586L27.9025 52.5534ZM32.1831 50.4141C33.4538 49.5405 34.5701 48.5707 35.518 47.4991L32.522 44.8489C31.8139 45.6493 30.9502 46.4075 29.9169 47.1179L32.1831 50.4141ZM32.02 46.174V54.868H36.02V46.174H32.02ZM32.7795 53.2992C31.394 54.3947 29.8848 55.2452 28.2458 55.8558L29.6422 59.6042C31.6752 58.8468 33.55 57.7893 35.2605 56.4368L32.7795 53.2992ZM28.2336 55.8604C26.7367 56.4292 24.7129 56.756 22.086 56.756V60.756C25.0031 60.756 27.5513 60.3988 29.6544 59.5996L28.2336 55.8604ZM22.086 56.756C19.4264 56.756 16.9854 56.3246 14.7452 55.4805L13.3348 59.2235C16.0626 60.2514 18.9856 60.756 22.086 60.756V56.756ZM14.7543 55.4839C12.5488 54.6406 10.6369 53.4328 8.99965 51.8598L6.22835 54.7442C8.2631 56.6992 10.6352 58.1914 13.3257 59.2201L14.7543 55.4839ZM9.01386 51.8736C7.40679 50.2986 6.15072 48.4501 5.24316 46.3109L1.56084 47.8731C2.66929 50.4859 4.22121 52.7774 6.21414 54.7304L9.01386 51.8736ZM5.25704 46.3444C4.39173 44.1972 3.944 41.7908 3.944 39.1H-0.0559999C-0.0559999 42.2412 0.468275 45.1628 1.54696 47.8396L5.25704 46.3444ZM3.944 39.1C3.944 36.4086 4.39189 34.0244 5.25309 31.9193L1.55091 30.4047C0.468113 33.0516 -0.0559999 35.9594 -0.0559999 39.1H3.944ZM5.24734 31.9332C6.15618 29.7585 7.41191 27.8963 9.01386 26.3264L6.21414 23.4696C4.21609 25.4277 2.66382 27.7415 1.55666 30.3908L5.24734 31.9332ZM8.99965 26.3402C10.6369 24.7672 12.5488 23.5594 14.7543 22.7161L13.3257 18.9799C10.6352 20.0086 8.2631 21.5008 6.22835 23.4558L8.99965 26.3402ZM14.7452 22.7195C16.9854 21.8754 19.4264 21.444 22.086 21.444V17.444C18.9856 17.444 16.0626 17.9486 13.3348 18.9765L14.7452 22.7195ZM22.086 21.444C24.7129 21.444 26.7367 21.7708 28.2336 22.3396L29.6544 18.6004C27.5513 17.8012 25.0031 17.444 22.086 17.444V21.444ZM28.2458 22.3442C29.8848 22.9548 31.394 23.8053 32.7795 24.9008L35.2605 21.7632C33.55 20.4107 31.6752 19.3532 29.6422 18.5958L28.2458 22.3442ZM32.02 23.332V32.026H36.02V23.332H32.02ZM35.518 30.7008C34.5701 29.6293 33.4538 28.6595 32.1831 27.7859L29.9169 31.0821C30.9502 31.7925 31.8139 32.5507 32.522 33.3511L35.518 30.7008ZM32.2075 27.803C30.918 26.8879 29.4785 26.172 27.9025 25.6466L26.6375 29.4414C27.8695 29.852 28.95 30.3961 29.8925 31.065L32.2075 27.803ZM27.9025 25.6466C26.2559 25.0978 24.4341 24.842 22.464 24.842V28.842C24.0939 28.842 25.4761 29.0542 26.6375 29.4414L27.9025 25.6466ZM22.464 24.842C19.9785 24.842 17.6479 25.4257 15.5075 26.6008L17.4325 30.1072C18.9641 29.2663 20.6295 28.842 22.464 28.842V24.842ZM15.5342 26.5864C13.3743 27.7299 11.624 29.3831 10.2939 31.503L13.6821 33.629C14.656 32.0769 15.8937 30.9221 17.4058 30.1216L15.5342 26.5864ZM10.279 31.5272C8.94188 33.7269 8.314 36.2778 8.314 39.1H12.314C12.314 36.8822 12.8021 35.0771 13.697 33.6048L10.279 31.5272ZM41.7036 20.2V18.2H39.7036V20.2H41.7036ZM49.4256 20.2H51.4256V18.2H49.4256V20.2ZM49.4256 51.25H47.4256V53.25H49.4256V51.25ZM64.4916 51.25H66.4916V49.25H64.4916V51.25ZM64.4916 58V60H66.4916V58H64.4916ZM41.7036 58H39.7036V60H41.7036V58ZM41.7036 22.2H49.4256V18.2H41.7036V22.2ZM47.4256 20.2V51.25H51.4256V20.2H47.4256ZM49.4256 53.25H64.4916V49.25H49.4256V53.25ZM62.4916 51.25V58H66.4916V51.25H62.4916ZM64.4916 56H41.7036V60H64.4916V56ZM43.7036 58V20.2H39.7036V58H43.7036ZM74.7858 45.526L73.0248 46.4742V46.4742L74.7858 45.526ZM78.9438 49.954L79.9881 48.2483L78.9438 49.954ZM91.2558 49.954L92.3001 51.6597L91.2558 49.954ZM95.3598 45.526L93.5988 44.5778L93.5917 44.591L93.5848 44.6044L95.3598 45.526ZM95.4138 32.674L93.6388 33.5956V33.5956L95.4138 32.674ZM91.3098 28.246L90.2655 29.9517V29.9517L91.3098 28.246ZM78.9438 28.246L79.9881 29.9517V29.9517L78.9438 28.246ZM74.7858 32.674L76.5467 33.6222L74.7858 32.674ZM66.6318 31.216L68.473 31.9971L68.4771 31.9872L66.6318 31.216ZM70.8438 24.952L69.4439 23.5236V23.5236L70.8438 24.952ZM77.1618 20.902L77.8853 22.7665L77.8926 22.7637L77.8998 22.7608L77.1618 20.902ZM93.0378 20.902L92.2902 22.757L92.3022 22.7619L92.3142 22.7665L93.0378 20.902ZM99.3558 24.952L97.9559 26.3804L97.963 26.3874L97.9701 26.3942L99.3558 24.952ZM103.568 31.216L101.713 31.9636L101.72 31.9804L101.727 31.9971L103.568 31.216ZM103.568 47.038L101.718 46.2765L101.716 46.2835L101.713 46.2904L103.568 47.038ZM99.4098 53.356L97.9956 51.9418L97.9884 51.9489L97.9814 51.9561L99.4098 53.356ZM93.0918 57.568L93.8393 59.423L93.8463 59.4202L93.8533 59.4174L93.0918 57.568ZM77.0538 57.568L76.2826 59.4133L76.2991 59.4202L76.3157 59.4268L77.0538 57.568ZM70.7358 53.356L69.3216 54.7702L70.7358 53.356ZM66.5778 47.038L64.7189 47.7761L64.7227 47.7856L66.5778 47.038ZM71.2738 39.1C71.2738 41.7979 71.8399 44.2735 73.0248 46.4742L76.5467 44.5778C75.7157 43.0345 75.2738 41.2261 75.2738 39.1H71.2738ZM73.0248 46.4742C74.1956 48.6485 75.8251 50.3897 77.8995 51.6597L79.9881 48.2483C78.5345 47.3583 77.3919 46.1475 76.5467 44.5778L73.0248 46.4742ZM77.8995 51.6597C80.0176 52.9565 82.4408 53.574 85.0998 53.574V49.574C83.0788 49.574 81.398 49.1115 79.9881 48.2483L77.8995 51.6597ZM85.0998 53.574C87.7588 53.574 90.182 52.9565 92.3001 51.6597L90.2115 48.2483C88.8016 49.1115 87.1208 49.574 85.0998 49.574V53.574ZM92.3001 51.6597C94.3809 50.3858 95.9986 48.6359 97.1348 46.4476L93.5848 44.6044C92.777 46.1601 91.6587 47.3622 90.2115 48.2483L92.3001 51.6597ZM97.1207 46.4742C98.3057 44.2735 98.8718 41.7979 98.8718 39.1H94.8718C94.8718 41.2261 94.4299 43.0345 93.5988 44.5778L97.1207 46.4742ZM98.8718 39.1C98.8718 36.4136 98.3286 33.9476 97.1888 31.7524L93.6388 33.5956C94.443 35.1444 94.8718 36.9624 94.8718 39.1H98.8718ZM97.1888 31.7524C96.0526 29.5641 94.4349 27.8142 92.3541 26.5403L90.2655 29.9517C91.7127 30.8378 92.831 32.0399 93.6388 33.5956L97.1888 31.7524ZM92.3541 26.5403C90.2313 25.2406 87.7884 24.626 85.0998 24.626V28.626C87.1631 28.626 88.8603 29.0914 90.2655 29.9517L92.3541 26.5403ZM85.0998 24.626C82.4408 24.626 80.0176 25.2435 77.8995 26.5403L79.9881 29.9517C81.398 29.0885 83.0788 28.626 85.0998 28.626V24.626ZM77.8995 26.5403C75.8251 27.8103 74.1956 29.5515 73.0248 31.7258L76.5467 33.6222C77.3919 32.0525 78.5345 30.8417 79.9881 29.9517L77.8995 26.5403ZM73.0248 31.7258C71.8399 33.9265 71.2738 36.4021 71.2738 39.1H75.2738C75.2738 36.9739 75.7157 35.1655 76.5467 33.6222L73.0248 31.7258ZM67.1198 39.1C67.1198 36.4573 67.5813 34.0989 68.4729 31.9971L64.7906 30.4349C63.6663 33.0851 63.1198 35.9827 63.1198 39.1H67.1198ZM68.4771 31.9872C69.386 29.8125 70.6417 27.9503 72.2436 26.3804L69.4439 23.5236C67.4459 25.4817 65.8936 27.7955 64.7864 30.4448L68.4771 31.9872ZM72.2436 26.3804C73.8449 24.8112 75.7191 23.6072 77.8853 22.7665L76.4382 19.0375C73.7805 20.0688 71.4427 21.5648 69.4439 23.5236L72.2436 26.3804ZM77.8998 22.7608C80.0948 21.8893 82.4882 21.444 85.0998 21.444V17.444C82.0233 17.444 79.1248 17.9707 76.4237 19.0432L77.8998 22.7608ZM85.0998 21.444C87.7512 21.444 90.1401 21.8906 92.2902 22.757L93.7853 19.047C91.1115 17.9694 88.2084 17.444 85.0998 17.444V21.444ZM92.3142 22.7665C94.4805 23.6072 96.3547 24.8112 97.9559 26.3804L100.756 23.5236C98.7569 21.5648 96.4191 20.0688 93.7613 19.0375L92.3142 22.7665ZM97.9701 26.3942C99.5979 27.9582 100.844 29.8079 101.713 31.9636L105.423 30.4684C104.348 27.8001 102.786 25.4738 100.741 23.5098L97.9701 26.3942ZM101.727 31.9971C102.618 34.0989 103.08 36.4573 103.08 39.1H107.08C107.08 35.9827 106.533 33.0851 105.409 30.4349L101.727 31.9971ZM103.08 39.1C103.08 41.7024 102.62 44.0875 101.718 46.2765L105.417 47.7995C106.532 45.0925 107.08 42.1856 107.08 39.1H103.08ZM101.713 46.2904C100.839 48.4584 99.6011 50.3363 97.9956 51.9418L100.824 54.7702C102.818 52.7757 104.352 50.4416 105.423 47.7856L101.713 46.2904ZM97.9814 51.9561C96.4164 53.553 94.5407 54.8085 92.3303 55.7186L93.8533 59.4174C96.5389 58.3115 98.8751 56.759 100.838 54.7559L97.9814 51.9561ZM92.3442 55.713C90.197 56.5783 87.7906 57.026 85.0998 57.026V61.026C88.241 61.026 91.1626 60.5017 93.8393 59.423L92.3442 55.713ZM85.0998 57.026C82.4094 57.026 79.981 56.5784 77.7918 55.7092L76.3157 59.4268C79.0225 60.5016 81.9581 61.026 85.0998 61.026V57.026ZM77.825 55.7227C75.6467 54.8124 73.7608 53.5526 72.15 51.9418L69.3216 54.7702C71.3108 56.7594 73.6368 58.3076 76.2826 59.4133L77.825 55.7227ZM72.15 51.9418C70.5445 50.3363 69.3064 48.4584 68.4328 46.2904L64.7227 47.7856C65.7931 50.4416 67.3271 52.7757 69.3216 54.7702L72.15 51.9418ZM68.4366 46.2999C67.5651 44.105 67.1198 41.7116 67.1198 39.1H63.1198C63.1198 42.1764 63.6465 45.075 64.7189 47.7761L68.4366 46.2999ZM110.779 20.2V18.2H108.779V20.2H110.779ZM118.501 20.2H120.501V18.2H118.501V20.2ZM120.175 50.332L118.642 51.6164L118.661 51.6389L118.68 51.6607L120.175 50.332ZM130.273 50.332L128.761 49.0237L128.758 49.027L130.273 50.332ZM132.001 20.2V18.2H130.001V20.2H132.001ZM139.723 20.2H141.723V18.2H139.723V20.2ZM138.643 51.466L136.803 50.6829V50.6829L138.643 51.466ZM135.565 55.732L134.257 54.2193L134.247 54.2282L134.237 54.2372L135.565 55.732ZM130.975 58.324L130.355 56.4228L130.337 56.4285L130.32 56.4345L130.975 58.324ZM119.473 58.324L120.129 56.4345L120.112 56.4285L120.094 56.4228L119.473 58.324ZM114.883 55.732L113.555 57.2268L114.883 55.732ZM110.779 22.2H118.501V18.2H110.779V22.2ZM116.501 20.2V45.094H120.501V20.2H116.501ZM116.501 45.094C116.501 47.606 117.157 49.8434 118.642 51.6164L121.708 49.0476C120.962 48.1566 120.501 46.902 120.501 45.094H116.501ZM118.68 51.6607C120.315 53.499 122.623 54.276 125.251 54.276V50.276C123.416 50.276 122.34 49.757 121.67 49.0033L118.68 51.6607ZM125.251 54.276C127.876 54.276 130.185 53.5 131.789 51.637L128.758 49.027C128.13 49.756 127.091 50.276 125.251 50.276V54.276ZM131.786 51.6403C133.319 49.8675 134.001 47.6212 134.001 45.094H130.001C130.001 46.8868 129.531 48.1325 128.761 49.0237L131.786 51.6403ZM134.001 45.094V20.2H130.001V45.094H134.001ZM132.001 22.2H139.723V18.2H132.001V22.2ZM137.723 20.2V45.58H141.723V20.2H137.723ZM137.723 45.58C137.723 47.5991 137.398 49.2855 136.803 50.6829L140.484 52.2491C141.329 50.2625 141.723 48.0249 141.723 45.58H137.723ZM136.803 50.6829C136.197 52.1071 135.348 53.2756 134.257 54.2193L136.874 57.2447C138.447 55.8844 139.65 54.2089 140.484 52.2491L136.803 50.6829ZM134.237 54.2372C133.16 55.1939 131.876 55.9261 130.355 56.4228L131.596 60.2252C133.603 59.5699 135.378 58.5741 136.894 57.2268L134.237 54.2372ZM130.32 56.4345C128.786 56.9665 127.102 57.242 125.251 57.242V61.242C127.504 61.242 129.636 60.9055 131.631 60.2135L130.32 56.4345ZM125.251 57.242C123.36 57.242 121.659 56.9652 120.129 56.4345L118.818 60.2135C120.816 60.9068 122.966 61.242 125.251 61.242V57.242ZM120.094 56.4228C118.573 55.9261 117.288 55.1939 116.212 54.2372L113.555 57.2268C115.07 58.5741 116.846 59.5699 118.853 60.2252L120.094 56.4228ZM116.212 54.2372C115.15 53.2935 114.311 52.1196 113.7 50.6829L110.019 52.2491C110.848 54.1964 112.024 55.8665 113.555 57.2268L116.212 54.2372ZM113.7 50.6829C113.105 49.2855 112.779 47.5991 112.779 45.58H108.779C108.779 48.0249 109.174 50.2625 110.019 52.2491L113.7 50.6829ZM112.779 45.58V20.2H108.779V45.58H112.779ZM147.594 20.2V18.2H145.594V20.2H147.594ZM155.478 20.2H157.478V18.2H155.478V20.2ZM155.478 58V60H157.478V58H155.478ZM147.594 58H145.594V60H147.594V58ZM152.562 58H150.562V60H152.562V58ZM152.562 50.98V48.98H150.562V50.98H152.562ZM164.874 50.332L165.436 52.2515L165.457 52.2452L165.479 52.2385L164.874 50.332ZM168.762 48.172L170.076 49.6802L168.762 48.172ZM171.354 44.5L169.516 43.7122L169.511 43.723L169.507 43.734L171.354 44.5ZM171.354 33.754L169.5 34.5044L169.511 34.5313L169.523 34.558L171.354 33.754ZM168.762 30.028L167.449 31.5362L168.762 30.028ZM164.874 27.922L164.27 29.8285L164.291 29.8352L164.312 29.8415L164.874 27.922ZM152.562 27.22H150.562V29.22H152.562V27.22ZM152.562 20.2V18.2H150.562V20.2H152.562ZM170.814 22.522L169.885 24.2933L169.894 24.2978L170.814 22.522ZM177.78 29.11L176.052 30.1164L176.058 30.126L177.78 29.11ZM177.78 49.144L179.503 50.16L179.509 50.1504L177.78 49.144ZM170.814 55.678L169.894 53.9021L169.885 53.9068L170.814 55.678ZM147.594 22.2H155.478V18.2H147.594V22.2ZM153.478 20.2V58H157.478V20.2H153.478ZM155.478 56H147.594V60H155.478V56ZM149.594 58V20.2H145.594V58H149.594ZM160.446 56H152.562V60H160.446V56ZM154.562 58V50.98H150.562V58H154.562ZM152.562 52.98H160.176V48.98H152.562V52.98ZM160.176 52.98C162.008 52.98 163.764 52.7408 165.436 52.2515L164.312 48.4125C163.032 48.7872 161.657 48.98 160.176 48.98V52.98ZM165.479 52.2385C167.204 51.6916 168.744 50.8404 170.076 49.6802L167.449 46.6638C166.549 47.4476 165.497 48.0364 164.27 48.4255L165.479 52.2385ZM170.076 49.6802C171.443 48.4895 172.481 47.0041 173.202 45.266L169.507 43.734C169.003 44.9479 168.314 45.9105 167.449 46.6638L170.076 49.6802ZM173.193 45.2878C173.972 43.4696 174.326 41.3886 174.326 39.1H170.326C170.326 40.9874 170.033 42.5064 169.516 43.7122L173.193 45.2878ZM174.326 39.1C174.326 36.8135 173.972 34.7425 173.186 32.95L169.523 34.558C170.032 35.7175 170.326 37.2105 170.326 39.1H174.326ZM173.208 33.0036C172.49 31.2303 171.452 29.7189 170.076 28.5198L167.449 31.5362C168.304 32.2811 168.994 33.2537 169.5 34.5044L173.208 33.0036ZM170.076 28.5198C168.733 27.3505 167.178 26.5124 165.436 26.0025L164.312 29.8415C165.522 30.1956 166.559 30.7615 167.449 31.5362L170.076 28.5198ZM165.479 26.0155C163.794 25.4814 162.023 25.22 160.176 25.22V29.22C161.641 29.22 163.002 29.4266 164.27 29.8285L165.479 26.0155ZM160.176 25.22H152.562V29.22H160.176V25.22ZM154.562 27.22V20.2H150.562V27.22H154.562ZM152.562 22.2H160.446V18.2H152.562V22.2ZM160.446 22.2C164.143 22.2 167.269 22.9213 169.885 24.2932L171.743 20.7508C168.455 19.0267 164.669 18.2 160.446 18.2V22.2ZM169.894 24.2978C172.553 25.6754 174.591 27.6081 176.052 30.1164L179.509 28.1036C177.657 24.9239 175.051 22.4646 171.734 20.7462L169.894 24.2978ZM176.058 30.126C177.501 32.5743 178.264 35.5399 178.264 39.1H182.264C182.264 34.9561 181.371 31.2617 179.503 28.094L176.058 30.126ZM178.264 39.1C178.264 42.6593 177.502 45.6478 176.052 48.1376L179.509 50.1504C181.371 46.9522 182.264 43.2447 182.264 39.1H178.264ZM176.058 48.128C174.599 50.6015 172.56 52.5211 169.894 53.9022L171.734 57.4538C175.045 55.7389 177.65 53.3025 179.503 50.16L176.058 48.128ZM169.885 53.9068C167.269 55.2787 164.143 56 160.446 56V60C164.669 60 168.455 59.1733 171.743 57.4492L169.885 53.9068ZM189.543 45.31L191.284 44.3274L190.197 42.3998L188.389 43.6761L189.543 45.31ZM192.135 48.982L190.645 50.3171L190.658 50.3311L190.671 50.3448L192.135 48.982ZM203.367 44.986L201.805 46.2354L201.823 46.2586L201.843 46.2813L203.367 44.986ZM200.721 43.096L199.826 44.8849L199.859 44.9014L199.893 44.9167L200.721 43.096ZM196.455 41.26L197.17 39.3923L197.151 39.3851L197.132 39.3782L196.455 41.26ZM193.323 39.964L192.428 41.7529L192.461 41.7694L192.495 41.7847L193.323 39.964ZM190.029 37.804L188.723 39.3188L188.738 39.332L188.753 39.3448L190.029 37.804ZM187.437 34.564L185.668 35.4975L185.673 35.5079L185.679 35.5182L187.437 34.564ZM188.031 24.358L186.396 23.2061L186.39 23.2136L188.031 24.358ZM192.513 20.74L193.322 22.5691L193.33 22.5655L193.338 22.5619L192.513 20.74ZM205.095 20.686L204.23 22.4896L204.253 22.5004L204.275 22.5105L205.095 20.686ZM209.469 23.764L207.992 25.1135L208.013 25.1355L208.033 25.1569L209.469 23.764ZM212.223 27.598L213.191 29.3478L214.851 28.429L214.021 26.7231L212.223 27.598ZM206.175 30.946L204.43 31.9232L205.402 33.6597L207.143 32.6958L206.175 30.946ZM204.339 28.516L202.855 29.8578L202.889 29.8949L202.924 29.9302L204.339 28.516ZM201.963 26.734L201.04 28.5084L201.068 28.5232L201.097 28.537L201.963 26.734ZM195.483 27.112L196.824 28.5951L196.843 28.5779L196.862 28.5603L195.483 27.112ZM195.267 32.026L193.743 33.3213L193.759 33.3407L193.776 33.3596L195.267 32.026ZM198.075 34.024L197.16 35.8026L197.18 35.813L197.201 35.823L198.075 34.024ZM202.827 35.914L203.492 34.028L203.481 34.0241L203.47 34.0202L202.827 35.914ZM206.337 37.534L205.332 39.2636L205.344 39.2704L205.356 39.2772L206.337 37.534ZM209.415 39.91L207.973 41.2962L208 41.3245L208.028 41.3517L209.415 39.91ZM211.575 43.15L209.718 43.8928L209.731 43.9253L209.745 43.9573L211.575 43.15ZM211.305 52.33L213.093 53.2244L211.305 52.33ZM208.335 56.002L209.556 57.5856L209.57 57.5748L209.584 57.5637L208.335 56.002ZM204.069 58.216L203.462 56.3102L203.436 56.3185L203.41 56.3276L204.069 58.216ZM192.675 57.73L191.847 59.5507L191.867 59.5597L191.887 59.5683L192.675 57.73ZM187.491 54.112L188.922 52.7149L187.491 54.112ZM184.035 49.198L182.881 47.5641L181.512 48.5306L182.224 50.0478L184.035 49.198ZM187.801 46.2926C188.653 47.8046 189.599 49.1505 190.645 50.3171L193.624 47.6469C192.798 46.7255 192.016 45.6234 191.284 44.3274L187.801 46.2926ZM190.671 50.3448C191.788 51.545 193.039 52.5071 194.426 53.2009L196.215 49.6231C195.298 49.1649 194.425 48.507 193.598 47.6192L190.671 50.3448ZM194.426 53.2009C195.865 53.9205 197.415 54.276 199.047 54.276V50.276C198.014 50.276 197.08 50.0555 196.215 49.6231L194.426 53.2009ZM199.047 54.276C200.944 54.276 202.683 53.7845 204.09 52.6385L201.563 49.5375C201.026 49.9755 200.245 50.276 199.047 50.276V54.276ZM204.09 52.6385C205.574 51.4289 206.285 49.7549 206.285 47.848H202.285C202.285 48.6771 202.023 49.1631 201.563 49.5375L204.09 52.6385ZM206.285 47.848C206.285 46.3111 205.882 44.8577 204.89 43.6907L201.843 46.2813C202.075 46.5543 202.285 47.0089 202.285 47.848H206.285ZM204.928 43.7366C204.092 42.6907 202.911 41.8947 201.548 41.2753L199.893 44.9167C200.906 45.3772 201.49 45.8413 201.805 46.2354L204.928 43.7366ZM201.615 41.3071C200.386 40.6929 198.9 40.0551 197.17 39.3923L195.739 43.1277C197.393 43.7609 198.751 44.3471 199.826 44.8849L201.615 41.3071ZM197.132 39.3782C196.297 39.0777 195.305 38.6683 194.15 38.1433L192.495 41.7847C193.716 42.3397 194.812 42.7943 195.777 43.1418L197.132 39.3782ZM194.217 38.1751C193.208 37.6705 192.237 37.0354 191.304 36.2632L188.753 39.3448C189.908 40.3006 191.133 41.1055 192.428 41.7529L194.217 38.1751ZM191.334 36.2892C190.481 35.5535 189.767 34.6658 189.194 33.6098L185.679 35.5182C186.474 36.9822 187.488 38.2545 188.723 39.3188L191.334 36.2892ZM189.205 33.6305C188.704 32.6807 188.411 31.4679 188.411 29.92H184.411C184.411 31.9721 184.801 33.8553 185.668 35.4975L189.205 33.6305ZM188.411 29.92C188.411 28.1081 188.858 26.6678 189.671 25.5024L186.39 23.2136C185.043 25.1442 184.411 27.4119 184.411 29.92H188.411ZM189.665 25.5099C190.561 24.2393 191.762 23.259 193.322 22.5691L191.704 18.9109C189.519 19.877 187.732 21.3087 186.396 23.2061L189.665 25.5099ZM193.338 22.5619C194.957 21.8284 196.796 21.444 198.885 21.444V17.444C196.293 17.444 193.884 17.9236 191.688 18.9181L193.338 22.5619ZM198.885 21.444C201.073 21.444 202.833 21.8199 204.23 22.4896L205.959 18.8824C203.9 17.8961 201.52 17.444 198.885 17.444V21.444ZM204.275 22.5105C205.823 23.2055 207.048 24.0801 207.992 25.1135L210.945 22.4145C209.585 20.9279 207.894 19.7505 205.914 18.8615L204.275 22.5105ZM208.033 25.1569C209.096 26.2513 209.882 27.3582 210.424 28.4729L214.021 26.7231C213.267 25.1738 212.218 23.7247 210.904 22.371L208.033 25.1569ZM211.254 25.8482L205.206 29.1962L207.143 32.6958L213.191 29.3478L211.254 25.8482ZM207.92 29.9688C207.327 28.9107 206.604 27.9533 205.753 27.1018L202.924 29.9302C203.513 30.5187 204.014 31.1813 204.43 31.9232L207.92 29.9688ZM205.822 27.1742C204.967 26.23 203.967 25.4776 202.828 24.931L201.097 28.537C201.758 28.8544 202.342 29.29 202.855 29.8578L205.822 27.1742ZM202.885 24.9596C201.664 24.3243 200.314 24.032 198.885 24.032V28.032C199.759 28.032 200.461 28.2077 201.04 28.5084L202.885 24.9596ZM198.885 24.032C197.088 24.032 195.369 24.4581 194.103 25.6637L196.862 28.5603C197.108 28.3259 197.657 28.032 198.885 28.032V24.032ZM194.141 25.6289C193.007 26.6542 192.349 27.9868 192.349 29.542H196.349C196.349 29.2252 196.446 28.9378 196.824 28.5951L194.141 25.6289ZM192.349 29.542C192.349 30.9575 192.827 32.2435 193.743 33.3213L196.79 30.7307C196.483 30.3685 196.349 29.9985 196.349 29.542H192.349ZM193.776 33.3596C194.615 34.2972 195.788 35.097 197.16 35.8026L198.989 32.2454C197.841 31.655 197.142 31.1228 196.757 30.6924L193.776 33.3596ZM197.201 35.823C198.56 36.4833 200.228 37.1435 202.183 37.8078L203.47 34.0202C201.61 33.3885 200.109 32.7887 198.948 32.225L197.201 35.823ZM202.161 37.8C203.268 38.1908 204.325 38.6785 205.332 39.2636L207.341 35.8044C206.116 35.0935 204.833 34.5012 203.492 34.028L202.161 37.8ZM205.356 39.2772C206.341 39.8311 207.211 40.5036 207.973 41.2962L210.856 38.5238C209.818 37.4444 208.636 36.5329 207.317 35.7908L205.356 39.2772ZM208.028 41.3517C208.75 42.0459 209.314 42.8844 209.718 43.8928L213.431 42.4072C212.827 40.8956 211.951 39.5741 210.801 38.4683L208.028 41.3517ZM209.745 43.9573C210.151 44.8792 210.385 46.0166 210.385 47.416H214.385C214.385 45.5754 214.078 43.8688 213.404 42.3427L209.745 43.9573ZM210.385 47.416C210.385 48.9853 210.078 50.31 209.516 51.4356L213.093 53.2244C213.971 51.47 214.385 49.5187 214.385 47.416H210.385ZM209.516 51.4356C208.925 52.6161 208.12 53.6126 207.085 54.4403L209.584 57.5637C211.069 56.3754 212.244 54.9239 213.093 53.2244L209.516 51.4356ZM207.113 54.4184C206.046 55.2417 204.834 55.8737 203.462 56.3102L204.675 60.1219C206.471 59.5503 208.103 58.7063 209.556 57.5856L207.113 54.4184ZM203.41 56.3276C202.085 56.7898 200.67 57.026 199.155 57.026V61.026C201.095 61.026 202.956 60.7222 204.727 60.1044L203.41 56.3276ZM199.155 57.026C197.107 57.026 195.217 56.6437 193.462 55.8917L191.887 59.5683C194.164 60.5443 196.594 61.026 199.155 61.026V57.026ZM193.502 55.9093C191.741 55.1088 190.219 54.0443 188.922 52.7149L186.059 55.5091C187.714 57.2037 189.648 58.5512 191.847 59.5507L193.502 55.9093ZM188.922 52.7149C187.589 51.3494 186.57 49.8935 185.845 48.3482L182.224 50.0478C183.155 52.0305 184.44 53.8506 186.059 55.5091L188.922 52.7149ZM185.188 50.8319L190.696 46.9439L188.389 43.6761L182.881 47.5641L185.188 50.8319ZM218.68 20.2V18.2H216.68V20.2H218.68ZM226.402 20.2H228.402V18.2H226.402V20.2ZM226.402 58V60H228.402V58H226.402ZM218.68 58H216.68V60H218.68V58ZM223.378 26.734H221.378V28.734H223.378V26.734ZM223.378 20.2V18.2H221.378V20.2H223.378ZM238.498 21.658L237.654 23.4712L237.666 23.4766L238.498 21.658ZM243.358 25.816L245.058 24.7621V24.7621L243.358 25.816ZM243.358 38.668L245.058 39.7219L245.063 39.7144L245.067 39.7068L243.358 38.668ZM238.498 42.826L237.666 41.0073L237.654 41.0128L238.498 42.826ZM223.378 44.284H221.378V46.284H223.378V44.284ZM223.378 37.75V35.75H221.378V37.75H223.378ZM235.744 28.138L234.506 29.709L234.521 29.7207L234.536 29.7322L235.744 28.138ZM218.68 22.2H226.402V18.2H218.68V22.2ZM224.402 20.2V58H228.402V20.2H224.402ZM226.402 56H218.68V60H226.402V56ZM220.68 58V20.2H216.68V58H220.68ZM225.378 26.734V20.2H221.378V26.734H225.378ZM223.378 22.2H230.884V18.2H223.378V22.2ZM230.884 22.2C233.664 22.2 235.897 22.6531 237.654 23.4712L239.342 19.8448C236.924 18.7189 234.081 18.2 230.884 18.2V22.2ZM237.666 23.4766C239.47 24.3022 240.771 25.4388 241.658 26.8699L245.058 24.7621C243.713 22.5932 241.774 20.9577 239.33 19.8394L237.666 23.4766ZM241.658 26.8699C242.546 28.3021 243.032 30.0651 243.032 32.242H247.032C247.032 29.4509 246.402 26.9299 245.058 24.7621L241.658 26.8699ZM243.032 32.242C243.032 34.3758 242.549 36.148 241.649 37.6292L245.067 39.7068C246.399 37.516 247.032 35.0042 247.032 32.242H243.032ZM241.658 37.6141C240.771 39.0452 239.47 40.1817 237.666 41.0074L239.33 44.6446C241.774 43.5262 243.713 41.8908 245.058 39.7219L241.658 37.6141ZM237.654 41.0128C235.897 41.8309 233.664 42.284 230.884 42.284V46.284C234.081 46.284 236.924 45.7651 239.342 44.6392L237.654 41.0128ZM230.884 42.284H223.378V46.284H230.884V42.284ZM225.378 44.284V37.75H221.378V44.284H225.378ZM223.378 39.75H230.884V35.75H223.378V39.75ZM230.884 39.75C233.226 39.75 235.334 39.2155 236.982 37.917L234.506 34.775C233.779 35.3485 232.646 35.75 230.884 35.75V39.75ZM236.982 37.917C238.745 36.5279 239.526 34.5246 239.526 32.242H235.526C235.526 33.5594 235.119 34.2921 234.506 34.775L236.982 37.917ZM239.526 32.242C239.526 29.9414 238.755 27.9098 236.952 26.5438L234.536 29.7322C235.109 30.1662 235.526 30.8706 235.526 32.242H239.526ZM236.982 26.567C235.334 25.2685 233.226 24.734 230.884 24.734V28.734C232.646 28.734 233.779 29.1355 234.506 29.709L236.982 26.567ZM230.884 24.734H223.378V28.734H230.884V24.734ZM252.447 49.414L250.47 49.1165L250.124 51.414H252.447V49.414ZM253.365 43.312V41.312H251.644L251.388 43.0145L253.365 43.312ZM271.509 43.312L273.487 43.0145L273.231 41.312H271.509V43.312ZM272.427 49.414V51.414H274.751L274.405 49.1165L272.427 49.414ZM262.329 32.458L264.165 31.6647L262.337 27.4334L260.496 31.6592L262.329 32.458ZM256.659 45.472L254.826 44.6732L254.62 45.1456L254.668 45.6587L256.659 45.472ZM256.821 47.2L258.638 48.0358L258.863 47.548L258.813 47.0133L256.821 47.2ZM251.853 58V60H253.135L253.67 58.8358L251.853 58ZM243.159 58L241.356 57.1359L239.984 60H243.159V58ZM262.329 17.986L264.133 17.1219L262.329 13.357L260.526 17.1219L262.329 17.986ZM281.499 58V60H284.675L283.303 57.1359L281.499 58ZM272.751 58L270.937 58.8417L271.475 60H272.751V58ZM267.891 47.524L265.895 47.4131L265.867 47.9122L266.077 48.3657L267.891 47.524ZM267.999 45.58L269.996 45.6909L270.023 45.2198L269.835 44.7867L267.999 45.58ZM254.425 49.7115L255.343 43.6095L251.388 43.0145L250.47 49.1165L254.425 49.7115ZM253.365 45.312H271.509V41.312H253.365V45.312ZM269.532 43.6095L270.45 49.7115L274.405 49.1165L273.487 43.0145L269.532 43.6095ZM272.427 47.414H252.447V51.414H272.427V47.414ZM260.496 31.6592L254.826 44.6732L258.493 46.2708L264.163 33.2568L260.496 31.6592ZM254.668 45.6587L254.83 47.3867L258.813 47.0133L258.651 45.2853L254.668 45.6587ZM255.004 46.3642L250.036 57.1642L253.67 58.8358L258.638 48.0358L255.004 46.3642ZM251.853 56H243.159V60H251.853V56ZM244.963 58.8641L264.133 18.8501L260.526 17.1219L241.356 57.1359L244.963 58.8641ZM260.526 18.8501L279.696 58.8641L283.303 57.1359L264.133 17.1219L260.526 18.8501ZM281.499 56H272.751V60H281.499V56ZM274.566 57.1583L269.706 46.6823L266.077 48.3657L270.937 58.8417L274.566 57.1583ZM269.888 47.6349L269.996 45.6909L266.003 45.4691L265.895 47.4131L269.888 47.6349ZM269.835 44.7867L264.165 31.6647L260.494 33.2513L266.164 46.3733L269.835 44.7867ZM291.849 45.634L290.131 46.6581L290.143 46.6777L290.155 46.697L291.849 45.634ZM296.331 49.9L295.369 51.6532L295.382 51.6605L295.396 51.6676L296.331 49.9ZM307.131 50.656L306.499 48.7586L307.131 50.656ZM310.911 48.766L309.778 47.1179L309.766 47.1264L309.754 47.135L310.911 48.766ZM313.881 46.174H315.881V40.8946L312.383 44.8489L313.881 46.174ZM313.881 54.868L315.122 56.4368L315.881 55.8363V54.868H313.881ZM308.805 57.73L308.107 55.8558L308.095 55.8604L308.805 57.73ZM293.901 57.352L293.187 59.2201L293.196 59.2235L293.901 57.352ZM287.475 53.302L286.075 54.7304L286.083 54.7374L286.09 54.7442L287.475 53.302ZM283.263 47.092L281.408 47.8396L281.415 47.8564L281.422 47.8731L283.263 47.092ZM283.263 31.162L281.418 30.3908L281.415 30.3978L281.412 30.4047L283.263 31.162ZM287.475 24.898L286.09 23.4558L286.083 23.4626L286.075 23.4696L287.475 24.898ZM293.901 20.848L293.196 18.9764L293.187 18.9799L293.901 20.848ZM308.805 20.47L308.095 22.3396L308.107 22.3442L308.805 20.47ZM313.881 23.332H315.881V22.3637L315.122 21.7632L313.881 23.332ZM313.881 32.026L312.383 33.3511L315.881 37.3054V32.026H313.881ZM310.911 29.434L309.754 31.065L309.766 31.0736L309.778 31.0821L310.911 29.434ZM307.131 27.544L306.499 29.4414L307.131 27.544ZM296.331 28.354L297.267 30.1216L297.281 30.1145L297.294 30.1072L296.331 28.354ZM291.849 32.566L290.155 31.503L290.148 31.515L290.14 31.5272L291.849 32.566ZM288.175 39.1C288.175 41.8932 288.806 44.4351 290.131 46.6581L293.567 44.6099C292.66 43.0889 292.175 41.2748 292.175 39.1H288.175ZM290.155 46.697C291.482 48.8111 293.223 50.4753 295.369 51.6532L297.294 48.1468C295.767 47.3087 294.521 46.1289 293.543 44.571L290.155 46.697ZM295.396 51.6676C297.531 52.7984 299.853 53.358 302.325 53.358V49.358C300.478 49.358 298.803 48.9456 297.267 48.1324L295.396 51.6676ZM302.325 53.358C304.295 53.358 306.117 53.1022 307.764 52.5534L306.499 48.7586C305.337 49.1458 303.955 49.358 302.325 49.358V53.358ZM307.764 52.5534C309.34 52.028 310.779 51.3121 312.069 50.397L309.754 47.135C308.811 47.8039 307.731 48.348 306.499 48.7586L307.764 52.5534ZM312.044 50.4141C313.315 49.5405 314.431 48.5707 315.379 47.4991L312.383 44.8489C311.675 45.6493 310.812 46.4075 309.778 47.1179L312.044 50.4141ZM311.881 46.174V54.868H315.881V46.174H311.881ZM312.641 53.2992C311.255 54.3947 309.746 55.2452 308.107 55.8558L309.504 59.6042C311.537 58.8468 313.411 57.7893 315.122 56.4368L312.641 53.2992ZM308.095 55.8604C306.598 56.4292 304.574 56.756 301.947 56.756V60.756C304.864 60.756 307.413 60.3988 309.516 59.5996L308.095 55.8604ZM301.947 56.756C299.288 56.756 296.847 56.3246 294.607 55.4805L293.196 59.2235C295.924 60.2514 298.847 60.756 301.947 60.756V56.756ZM294.616 55.4839C292.41 54.6406 290.498 53.4328 288.861 51.8598L286.09 54.7442C288.124 56.6992 290.497 58.1914 293.187 59.2201L294.616 55.4839ZM288.875 51.8736C287.268 50.2986 286.012 48.4501 285.104 46.3109L281.422 47.8731C282.531 50.4859 284.083 52.7774 286.075 54.7304L288.875 51.8736ZM285.118 46.3444C284.253 44.1972 283.805 41.7908 283.805 39.1H279.805C279.805 42.2412 280.33 45.1628 281.408 47.8396L285.118 46.3444ZM283.805 39.1C283.805 36.4086 284.253 34.0244 285.114 31.9193L281.412 30.4047C280.329 33.0516 279.805 35.9594 279.805 39.1H283.805ZM285.109 31.9332C286.018 29.7585 287.273 27.8963 288.875 26.3264L286.075 23.4696C284.077 25.4277 282.525 27.7415 281.418 30.3908L285.109 31.9332ZM288.861 26.3402C290.498 24.7672 292.41 23.5594 294.616 22.7161L293.187 18.9799C290.497 20.0086 288.124 21.5008 286.09 23.4558L288.861 26.3402ZM294.607 22.7195C296.847 21.8754 299.288 21.444 301.947 21.444V17.444C298.847 17.444 295.924 17.9486 293.196 18.9765L294.607 22.7195ZM301.947 21.444C304.574 21.444 306.598 21.7708 308.095 22.3396L309.516 18.6004C307.413 17.8012 304.864 17.444 301.947 17.444V21.444ZM308.107 22.3442C309.746 22.9548 311.255 23.8053 312.641 24.9008L315.122 21.7632C313.411 20.4107 311.537 19.3532 309.504 18.5958L308.107 22.3442ZM311.881 23.332V32.026H315.881V23.332H311.881ZM315.379 30.7008C314.431 29.6293 313.315 28.6595 312.044 27.7859L309.778 31.0821C310.812 31.7925 311.675 32.5507 312.383 33.3511L315.379 30.7008ZM312.069 27.803C310.779 26.8879 309.34 26.172 307.764 25.6466L306.499 29.4414C307.731 29.852 308.811 30.3961 309.754 31.065L312.069 27.803ZM307.764 25.6466C306.117 25.0978 304.295 24.842 302.325 24.842V28.842C303.955 28.842 305.337 29.0542 306.499 29.4414L307.764 25.6466ZM302.325 24.842C299.84 24.842 297.509 25.4257 295.369 26.6008L297.294 30.1072C298.825 29.2663 300.491 28.842 302.325 28.842V24.842ZM295.396 26.5864C293.236 27.7299 291.485 29.3831 290.155 31.503L293.543 33.629C294.517 32.0769 295.755 30.9221 297.267 30.1216L295.396 26.5864ZM290.14 31.5272C288.803 33.7269 288.175 36.2778 288.175 39.1H292.175C292.175 36.8822 292.663 35.0771 293.558 33.6048L290.14 31.5272ZM326.533 58H324.533V60H326.533V58ZM326.533 51.466V49.466H324.533V51.466H326.533ZM345.595 51.466H347.595V49.466H345.595V51.466ZM345.595 58V60H347.595V58H345.595ZM326.533 26.734H324.533V28.734H326.533V26.734ZM326.533 20.2V18.2H324.533V20.2H326.533ZM345.595 20.2H347.595V18.2H345.595V20.2ZM345.595 26.734V28.734H347.595V26.734H345.595ZM326.533 41.152H324.533V43.152H326.533V41.152ZM326.533 34.726V32.726H324.533V34.726H326.533ZM344.515 34.726H346.515V32.726H344.515V34.726ZM344.515 41.152V43.152H346.515V41.152H344.515ZM321.565 20.2V18.2H319.565V20.2H321.565ZM329.017 20.2H331.017V18.2H329.017V20.2ZM329.017 58V60H331.017V58H329.017ZM321.565 58H319.565V60H321.565V58ZM328.533 58V51.466H324.533V58H328.533ZM326.533 53.466H345.595V49.466H326.533V53.466ZM343.595 51.466V58H347.595V51.466H343.595ZM345.595 56H326.533V60H345.595V56ZM328.533 26.734V20.2H324.533V26.734H328.533ZM326.533 22.2H345.595V18.2H326.533V22.2ZM343.595 20.2V26.734H347.595V20.2H343.595ZM345.595 24.734H326.533V28.734H345.595V24.734ZM328.533 41.152V34.726H324.533V41.152H328.533ZM326.533 36.726H344.515V32.726H326.533V36.726ZM342.515 34.726V41.152H346.515V34.726H342.515ZM344.515 39.152H326.533V43.152H344.515V39.152ZM321.565 22.2H329.017V18.2H321.565V22.2ZM327.017 20.2V58H331.017V20.2H327.017ZM329.017 56H321.565V60H329.017V56ZM323.565 58V20.2H319.565V58H323.565Z" fill="white" mask="url(#path-1-outside-1_1_50534)"/>
</svg>
